<?xml version="1.0" encoding="utf-8"?><svg viewBox="0 0 26 26" xmlns="http://www.w3.org/2000/svg" xmlns:xlink="http://www.w3.org/1999/xlink"><style>:root>svg{display:none}:root>svg:target{display:block}</style><svg fill="none" viewBox="0 0 26 26" id="bag" xmlns="http://www.w3.org/2000/svg"><g clip-path="url(#aclip0)" fill="#000"><path d="M19.067 22.848a3.178 3.178 0 003.174-3.174V17.68c.472-.16.813-.605.813-1.13 0-.658-.536-1.193-1.193-1.193-.658 0-1.193.535-1.193 1.193 0 .524.34.97.812 1.13v1.994a2.415 2.415 0 01-2.413 2.412 2.415 2.415 0 01-2.412-2.412V17.68c.472-.16.812-.605.812-1.13 0-.658-.535-1.193-1.193-1.193a1.194 1.194 0 00-.38 2.323v1.994a3.178 3.178 0 003.173 3.174zm2.794-6.73a.432.432 0 11-.001.864.432.432 0 010-.863zm-5.587 0a.432.432 0 110 .864.432.432 0 010-.863z"/><path d="M1.883 26h22.583a.98.98 0 00.973-1.086l-.444-4.058a.38.38 0 10-.758.083l.445 4.058a.217.217 0 01-.216.241H13.669a.217.217 0 01-.216-.241l1.098-10.023a.217.217 0 01.216-.194h8.6c.112 0 .205.084.217.194l.459 4.188a.38.38 0 10.757-.083l-.46-4.188a.978.978 0 00-.973-.873h-4.213l-.588-5.367a1.327 1.327 0 00-1.321-1.184H15.73V5.296A5.302 5.302 0 0010.434 0a5.302 5.302 0 00-5.296 5.296v2.171H3.623c-.679 0-1.247.51-1.32 1.184L.562 24.527A1.33 1.33 0 001.883 26zm-.563-1.39L3.06 8.734a.566.566 0 01.563-.505H5.14v1.418a1.24 1.24 0 00.38 2.419A1.24 1.24 0 005.9 9.647V8.23h3.645a.38.38 0 100-.762H5.9V5.296c0-2.5 2.034-4.534 4.534-4.534s4.534 2.034 4.534 4.534v2.171h-3.645a.38.38 0 100 .762h3.645v1.418a1.24 1.24 0 00.38 2.419 1.24 1.24 0 00.382-2.419V8.23h1.515c.29 0 .532.217.564.505l.579 5.284h-3.62c-.501 0-.92.376-.974.873l-1.099 10.023c-.011.11-.002.232.02.324H1.882a.566.566 0 01-.563-.628zm4.2-14.261a.478.478 0 11-.002.956.478.478 0 01.001-.956zm9.829 0a.478.478 0 11-.001.956.478.478 0 010-.956z"/></g><defs><clipPath id="aclip0"><path fill="#fff" d="M0 0h26v26H0z"/></clipPath></defs></svg><svg fill="none" viewBox="0 0 22 22" id="search" xmlns="http://www.w3.org/2000/svg"><path d="M13.273 3.811a6.663 6.663 0 00-1.747-1.258.33.33 0 00-.294.59 6.017 6.017 0 011.575 9.634 5.971 5.971 0 01-4.25 1.761 5.971 5.971 0 01-4.25-1.76 5.971 5.971 0 01-1.76-4.25c0-1.606.624-3.115 1.76-4.25a5.945 5.945 0 012.412-1.474 6.067 6.067 0 012.727-.221.33.33 0 10.097-.653 6.73 6.73 0 00-3.025.245A6.69 6.69 0 003.84 3.811a6.626 6.626 0 00-1.954 4.717c0 1.781.694 3.456 1.954 4.716a6.627 6.627 0 004.717 1.954 6.626 6.626 0 004.716-1.954c2.6-2.6 2.6-6.832 0-9.433z" fill="#000"/><path d="M21.475 18.963l-5.77-5.77A8.543 8.543 0 0014.58 2.51 8.486 8.486 0 008.54 0H8.54C6.264 0 4.12.89 2.503 2.508c-3.33 3.329-3.33 8.745 0 12.074a8.543 8.543 0 0010.684 1.127l5.77 5.77c.348.348.803.521 1.26.521.455 0 .91-.174 1.258-.52a1.782 1.782 0 000-2.517zm-.467 2.05a1.121 1.121 0 01-1.584 0l-5.962-5.962a.33.33 0 00-.422-.038 7.882 7.882 0 01-10.07-.898c-3.073-3.071-3.073-8.07 0-11.14A7.83 7.83 0 018.54.66h.001c2.1 0 4.079.823 5.572 2.316a7.882 7.882 0 01.901 10.06c-.224.277-.842 1.018-1.146 1.281a.33.33 0 00.433.498c.279-.242.729-.765 1.002-1.091l5.705 5.705a1.121 1.121 0 010 1.584z" fill="#000"/></svg></svg>