<svg width="65" height="65" viewBox="0 0 65 65" fill="none" xmlns="http://www.w3.org/2000/svg">
<path d="M57.8727 58.9103C47.9266 67.0296 16.8703 67.0296 7.1271 58.9103C-2.81905 50.791 -1.80415 16.081 7.1271 6.94684C16.0584 -2.18736 48.9415 -2.18736 57.8727 6.94684C66.804 16.081 67.8189 50.7912 57.8727 58.9103Z" fill="#8DC640"/>
<g opacity="0.2">
<path opacity="0.2" d="M32.7036 44.7018C23.7723 51.8062 13.8262 55.4598 4.48901 55.6628C-2.41245 43.8898 -0.991514 15.2693 7.1278 6.94709C14.4352 -0.563228 37.3722 -1.98417 50.5661 2.68441C53.8137 16.0813 47.1153 33.1317 32.7036 44.7018Z" fill="white"/>
</g>
<path d="M27.8312 50.5883C26.4103 50.5883 24.9895 49.9794 24.1775 48.7615L12.8106 34.1468C11.1867 32.117 11.5927 29.2752 13.6225 27.6514C15.6523 26.0275 18.4941 26.4335 20.1179 28.4633L27.8312 38.4095L44.8818 16.2844C46.5057 14.2546 49.3474 13.8486 51.3772 15.4725C53.407 17.0963 53.813 19.9381 52.1891 21.9679L31.4849 48.7615C30.47 49.7764 29.2522 50.5883 27.8312 50.5883Z" fill="white"/>
</svg>
